<svg xmlns="http://www.w3.org/2000/svg" viewBox="0 0 100 100">
  <defs>
    <linearGradient id="g" gradientUnits="userSpaceOnUse" x1="0" y1="0" x2="100" y2="100">
      <stop offset="0%" stop-color="#8b5cf6"/>
      <stop offset="100%" stop-color="#22c55e"/>
    </linearGradient>
  </defs>
  <rect width="100" height="100" rx="18" fill="url(#g)"/>
  <g transform="translate(50 50) scale(0.055) translate(-596 -969)"
     fill="#201C2B" stroke="#201C2B" stroke-width="30"
     stroke-linejoin="round" stroke-linecap="round">
    <path d="M611.0 1545.0Q432.0 1545.0 302.5 1476.5Q173.0 1408.0 104.0 1279.0Q35.0 1150.0 35.0 969.0Q35.0 796.0 104.5 666.5Q174.0 537.0 301.0 465.0Q428.0 393.0 601.0 393.0Q728.0 393.0 830.5 432.5Q933.0 472.0 1006.0 546.5Q1079.0 621.0 1118.0 727.0Q1157.0 833.0 1157.0 967.0V1059.0H159.0V839.0H969.0L781.0 885.0Q781.0 817.0 761.0 770.5Q741.0 724.0 702.0 699.5Q663.0 675.0 605.0 675.0Q547.0 675.0 508.0 699.5Q469.0 724.0 449.0 770.5Q429.0 817.0 429.0 885.0V1045.0Q429.0 1119.0 452.5 1167.5Q476.0 1216.0 519.0 1239.5Q562.0 1263.0 619.0 1263.0Q660.0 1263.0 693.5 1251.5Q727.0 1240.0 751.0 1218.5Q775.0 1197.0 787.0 1166.0L1141.0 1218.0Q1113.0 1318.0 1042.0 1391.5Q971.0 1465.0 862.5 1505.0Q754.0 1545.0 611.0 1545.0Z"/>
  </g>
</svg>
